<?xml version="1.0" standalone="no"?>
<!DOCTYPE svg PUBLIC "-//W3C//DTD SVG 20010904//EN"
 "http://www.w3.org/TR/2001/REC-SVG-20010904/DTD/svg10.dtd">
<svg version="1.0" xmlns="http://www.w3.org/2000/svg"
 width="2000.000000pt" height="2000.000000pt" viewBox="0 0 2000.000000 2000.000000"
 preserveAspectRatio="xMidYMid meet">
<metadata>
Created by potrace 1.13, written by Peter Selinger 2001-2015
</metadata>
<g transform="translate(0.000000,2000.000000) scale(0.100000,-0.100000)"
fill="#000000" stroke="none">
<path d="M9707 19829 c-2246 -77 -4392 -916 -6102 -2385 -190 -164 -278 -245
-494 -458 -526 -518 -935 -1016 -1336 -1625 -1245 -1891 -1798 -4159 -1570
-6436 90 -893 307 -1791 631 -2612 427 -1080 1008 -2034 1782 -2921 188 -216
689 -717 907 -907 1322 -1153 2886 -1928 4572 -2264 683 -137 1247 -192 1965
-192 554 0 965 30 1481 107 1956 291 3815 1189 5264 2543 1798 1680 2895 3916
3117 6351 50 550 50 1250 0 1800 -151 1657 -706 3226 -1629 4605 -241 360
-496 693 -793 1033 -187 215 -689 717 -904 904 -983 857 -2061 1487 -3273
1913 -934 328 -1915 509 -2955 545 -311 11 -328 11 -663 -1z m723 -399 c1397
-60 2712 -400 3925 -1015 903 -458 1691 -1030 2405 -1745 811 -812 1469 -1751
1940 -2770 737 -1591 1012 -3371 794 -5140 -208 -1691 -868 -3300 -1900 -4630
-1311 -1689 -3165 -2909 -5200 -3419 -1513 -380 -3118 -383 -4619 -10 -1982
492 -3700 1569 -5013 3141 -1002 1200 -1690 2614 -2006 4118 -139 665 -200
1258 -200 1965 0 408 9 592 45 955 169 1718 810 3368 1841 4740 506 675 1125
1302 1798 1824 1017 788 2150 1350 3377 1675 913 243 1890 350 2813 311z"/>
<path d="M9520 19119 c-1267 -81 -2428 -388 -3535 -934 -1805 -891 -3289
-2375 -4180 -4180 -482 -978 -787 -2034 -900 -3117 -55 -536 -61 -1217 -14
-1758 157 -1824 858 -3563 2013 -4989 379 -469 884 -974 1361 -1362 1249
-1016 2782 -1697 4375 -1943 731 -113 1518 -138 2260 -71 1784 161 3487 844
4890 1963 1313 1047 2297 2402 2898 3992 272 718 465 1571 537 2370 47 520 48
1118 4 1630 -147 1715 -763 3335 -1793 4715 -447 598 -1010 1184 -1587 1651
-1487 1204 -3277 1902 -5206 2029 -243 16 -899 18 -1123 4z m1754 -381 c5 -85
37 -2051 36 -2245 l0 -83 -200 0 -200 0 0 48 c0 144 -31 1806 -33 1808 -2 2
-144 -413 -317 -921 -172 -508 -316 -928 -319 -933 -3 -5 -83 -12 -177 -16
l-172 -7 -30 78 c-16 43 -172 456 -347 918 -175 462 -321 843 -324 847 -4 5
-6 -61 -4 -145 8 -413 23 -1420 23 -1553 l0 -151 -196 -7 c-108 -3 -198 -5
-200 -4 -3 4 -44 2411 -41 2414 1 1 136 4 299 6 l297 3 347 -938 c191 -515
350 -935 353 -931 3 3 144 429 312 947 l305 942 270 5 c148 3 279 7 291 8 20
2 21 -3 27 -90z m4504 -1890 l133 -147 -541 -776 c-298 -427 -540 -778 -538
-780 2 -2 385 192 852 431 467 239 852 431 856 427 3 -4 62 -71 131 -148 68
-77 130 -147 136 -156 11 -13 -72 -142 -516 -807 -291 -436 -525 -792 -522
-792 4 0 382 200 841 445 l833 445 57 -62 c192 -212 228 -254 222 -259 -4 -4
-508 -255 -1121 -559 -1078 -535 -1114 -552 -1131 -534 -20 23 -226 250 -252
280 -18 21 -13 29 507 814 289 436 524 794 522 796 -2 2 -385 -190 -851 -426
-466 -237 -852 -428 -857 -424 -15 9 -271 297 -276 310 -2 7 303 481 678 1054
538 822 685 1039 693 1028 6 -8 71 -80 144 -160z m-11187 -268 c88 -27 156
-69 235 -142 179 -167 227 -363 150 -606 -7 -21 -5 -21 61 12 78 39 123 52
208 61 221 24 518 -165 629 -399 108 -228 58 -485 -147 -759 -57 -76 -900
-937 -918 -937 -4 0 -367 354 -806 786 -439 432 -824 812 -856 844 l-59 57
446 450 c446 451 500 501 611 568 137 82 311 108 446 65z m6019 -605 c806 -79
1505 -280 2195 -630 1673 -849 2867 -2431 3214 -4260 80 -420 105 -696 105
-1155 0 -539 -46 -940 -165 -1430 -357 -1480 -1259 -2770 -2539 -3630 -285
-192 -756 -441 -1076 -569 -562 -225 -1112 -356 -1749 -417 -251 -25 -819 -25
-1070 0 -780 75 -1456 263 -2130 591 -1388 677 -2481 1878 -3020 3319 -190
510 -303 1007 -362 1596 -24 247 -24 833 1 1085 77 790 266 1460 601 2140 594
1203 1557 2166 2760 2760 748 369 1521 570 2385 619 143 8 703 -4 850 -19z"/>
<path d="M4288 16167 c-79 -30 -143 -86 -395 -345 l-261 -269 234 -234 235
-234 268 270 c314 317 326 334 326 475 0 104 -23 158 -100 234 -99 98 -216
137 -307 103z"/>
<path d="M5045 15529 c-98 -34 -167 -93 -450 -384 l-270 -278 265 -258 c146
-142 268 -259 271 -259 3 0 136 132 295 293 312 314 341 353 363 470 20 110
-21 220 -118 317 -108 108 -233 143 -356 99z"/>
<path d="M9725 15713 c-116 -6 -382 -34 -541 -58 -1379 -204 -2659 -923 -3558
-2000 -474 -568 -822 -1193 -1056 -1893 -181 -543 -274 -1095 -287 -1692 -9
-447 23 -820 108 -1250 219 -1111 770 -2140 1579 -2950 1291 -1290 3101 -1890
4915 -1629 1906 274 3563 1504 4388 3256 494 1049 658 2226 471 3383 -192
1190 -757 2292 -1614 3150 -1095 1094 -2566 1699 -4105 1688 -132 -1 -267 -3
-300 -5z m885 -219 c789 -81 1531 -319 2211 -710 756 -433 1411 -1052 1892
-1784 548 -836 857 -1794 903 -2797 l7 -153 -2737 0 -2736 0 0 2737 0 2736
158 -7 c86 -4 222 -13 302 -22z m-660 -8405 l0 -2712 -152 7 c-677 31 -1343
184 -1953 448 -1103 477 -2033 1307 -2629 2347 -437 760 -686 1608 -732 2489
l-7 132 2737 0 2736 0 0 -2711z"/>
</g>
</svg>
