<svg width="30" height="31" viewBox="0 0 30 31" version="1.1" xmlns="http://www.w3.org/2000/svg" xmlns:xlink="http://www.w3.org/1999/xlink" xmlns:figma="http://www.figma.com/figma/ns">
<title>Group</title>
<desc>Created using Figma</desc>
<g id="Canvas" transform="translate(84 134)" figma:type="canvas">
<g id="Group" style="mix-blend-mode:normal;" figma:type="frame">
<g id="ic_directions_car_black_48px" style="mix-blend-mode:normal;" figma:type="frame">
<g id="Vector" style="mix-blend-mode:normal;" figma:type="vector">
<use xlink:href="#path0_fill" transform="translate(-78.5 -125.833)" fill="#6FCF97" style="mix-blend-mode:normal;"/>
</g>
</g>
<g id="ic_directions_car_black_48px" style="mix-blend-mode:normal;" figma:type="frame">
<g id="Vector" style="mix-blend-mode:normal;" figma:type="vector">
<use xlink:href="#path1_fill" transform="translate(-62.25 -129.917)" fill="#6FCF97" style="mix-blend-mode:normal;"/>
</g>
</g>
<g id="ic_directions_car_black_48px" style="mix-blend-mode:normal;" figma:type="frame">
<g id="Vector" style="mix-blend-mode:normal;" figma:type="vector">
<use xlink:href="#path2_fill" transform="translate(-77.25 -110.417)" fill="#6FCF97" style="mix-blend-mode:normal;"/>
</g>
</g>
<g id="ic_directions_car_black_48px" style="mix-blend-mode:normal;" figma:type="frame">
<g id="Vector" style="mix-blend-mode:normal;" figma:type="vector">
<use xlink:href="#path1_fill" transform="translate(-83.75 -133.917)" fill="#6FCF97" style="mix-blend-mode:normal;"/>
</g>
</g>
</g>
</g>
<defs>
<path id="path0_fill" d="M 13.2667 0.841667C 13.1 0.35 12.6333 0 12.0833 0L 2.91667 0C 2.36667 0 1.90833 0.35 1.73333 0.841667L 0 5.83333L 0 12.5C 0 12.9583 0.375 13.3333 0.833333 13.3333L 1.66667 13.3333C 2.125 13.3333 2.5 12.9583 2.5 12.5L 2.5 11.6667L 12.5 11.6667L 12.5 12.5C 12.5 12.9583 12.875 13.3333 13.3333 13.3333L 14.1667 13.3333C 14.625 13.3333 15 12.9583 15 12.5L 15 5.83333L 13.2667 0.841667ZM 2.91667 9.16667C 2.225 9.16667 1.66667 8.60833 1.66667 7.91667C 1.66667 7.225 2.225 6.66667 2.91667 6.66667C 3.60833 6.66667 4.16667 7.225 4.16667 7.91667C 4.16667 8.60833 3.60833 9.16667 2.91667 9.16667ZM 12.0833 9.16667C 11.3917 9.16667 10.8333 8.60833 10.8333 7.91667C 10.8333 7.225 11.3917 6.66667 12.0833 6.66667C 12.775 6.66667 13.3333 7.225 13.3333 7.91667C 13.3333 8.60833 12.775 9.16667 12.0833 9.16667ZM 1.66667 5L 2.91667 1.25L 12.0833 1.25L 13.3333 5L 1.66667 5Z"/>
<path id="path1_fill" d="M 6.63333 0.420833C 6.55 0.175 6.31667 0 6.04167 0L 1.45833 0C 1.18333 0 0.954167 0.175 0.866667 0.420833L 0 2.91667L 0 6.25C 0 6.47917 0.1875 6.66667 0.416667 6.66667L 0.833333 6.66667C 1.0625 6.66667 1.25 6.47917 1.25 6.25L 1.25 5.83333L 6.25 5.83333L 6.25 6.25C 6.25 6.47917 6.4375 6.66667 6.66667 6.66667L 7.08333 6.66667C 7.3125 6.66667 7.5 6.47917 7.5 6.25L 7.5 2.91667L 6.63333 0.420833ZM 1.45833 4.58333C 1.1125 4.58333 0.833333 4.30417 0.833333 3.95833C 0.833333 3.6125 1.1125 3.33333 1.45833 3.33333C 1.80417 3.33333 2.08333 3.6125 2.08333 3.95833C 2.08333 4.30417 1.80417 4.58333 1.45833 4.58333ZM 6.04167 4.58333C 5.69583 4.58333 5.41667 4.30417 5.41667 3.95833C 5.41667 3.6125 5.69583 3.33333 6.04167 3.33333C 6.3875 3.33333 6.66667 3.6125 6.66667 3.95833C 6.66667 4.30417 6.3875 4.58333 6.04167 4.58333ZM 0.833333 2.5L 1.45833 0.625L 6.04167 0.625L 6.66667 2.5L 0.833333 2.5Z"/>
<path id="path2_fill" d="M 6.63333 0.420833C 6.55 0.175 6.31667 0 6.04167 0L 1.45833 0C 1.18333 0 0.954167 0.175 0.866667 0.420833L 0 2.91667L 0 6.25C 0 6.47917 0.1875 6.66667 0.416667 6.66667L 0.833333 6.66667C 1.0625 6.66667 1.25 6.47917 1.25 6.25L 1.25 5.83333L 6.25 5.83333L 6.25 6.25C 6.25 6.47917 6.4375 6.66667 6.66667 6.66667L 7.08333 6.66667C 7.3125 6.66667 7.5 6.47917 7.5 6.25L 7.5 2.91667L 6.63333 0.420833ZM 1.45833 4.58333C 1.1125 4.58333 0.833333 4.30417 0.833333 3.95833C 0.833333 3.6125 1.1125 3.33333 1.45833 3.33333C 1.80417 3.33333 2.08333 3.6125 2.08333 3.95833C 2.08333 4.30417 1.80417 4.58333 1.45833 4.58333ZM 6.04167 4.58333C 5.69583 4.58333 5.41667 4.30417 5.41667 3.95833C 5.41667 3.6125 5.69583 3.33333 6.04167 3.33333C 6.3875 3.33333 6.66667 3.6125 6.66667 3.95833C 6.66667 4.30417 6.3875 4.58333 6.04167 4.58333ZM 0.833333 2.5L 1.45833 0.625L 6.04167 0.625L 6.66667 2.5L 0.833333 2.5Z"/>
</defs>
</svg>
