<svg width="16" height="17" viewBox="0 0 16 17" version="1.1" xmlns="http://www.w3.org/2000/svg" xmlns:xlink="http://www.w3.org/1999/xlink" xmlns:figma="http://www.figma.com/figma/ns">
<title>Group</title>
<desc>Created using Figma</desc>
<g id="Canvas" transform="translate(85 161)" figma:type="canvas">
<g id="Group" style="mix-blend-mode:normal;" figma:type="frame">
<g id="ic_settings_black_48px" style="mix-blend-mode:normal;" figma:type="frame">
<g id="Vector" style="mix-blend-mode:normal;" figma:type="vector">
<use xlink:href="#path0_fill" transform="translate(-84.0539 -160.167)" fill="#6FCF97" style="mix-blend-mode:normal;"/>
</g>
</g>
<g id="ic_settings_black_48px" style="mix-blend-mode:normal;" figma:type="frame">
<g id="Vector" style="mix-blend-mode:normal;" figma:type="vector">
<use xlink:href="#path1_fill" transform="translate(-75.2857 -155.417)" fill="#6FCF97" style="mix-blend-mode:normal;"/>
</g>
</g>
<g id="ic_settings_black_48px" style="mix-blend-mode:normal;" figma:type="frame">
<g id="Vector" style="mix-blend-mode:normal;" figma:type="vector">
<use xlink:href="#path1_fill" transform="translate(-81.3377 -150.417)" fill="#6FCF97" style="mix-blend-mode:normal;"/>
</g>
</g>
</g>
</g>
<defs>
<path id="path0_fill" d="M 7.14972 4.575C 7.16639 4.44167 7.17889 4.30833 7.17889 4.16667C 7.17889 4.025 7.16639 3.89167 7.14972 3.75833L 8.02889 3.07083C 8.10806 3.00833 8.12889 2.89583 8.07889 2.80417L 7.24555 1.3625C 7.19555 1.27083 7.08305 1.2375 6.99139 1.27083L 5.95389 1.6875C 5.73722 1.52083 5.50389 1.38333 5.24972 1.27917L 5.09139 0.175C 5.07889 0.075 4.99139 0 4.88722 0L 3.22055 0C 3.11639 0 3.02889 0.075 3.01639 0.175L 2.85805 1.27917C 2.60389 1.38333 2.37055 1.525 2.15389 1.6875L 1.11639 1.27083C 1.02055 1.23333 0.912221 1.27083 0.862222 1.3625L 0.0288881 2.80417C -0.0252785 2.89583 -0.000278484 3.00833 0.0788882 3.07083L 0.958055 3.75833C 0.941388 3.89167 0.928888 4.02917 0.928888 4.16667C 0.928888 4.30417 0.941388 4.44167 0.958055 4.575L 0.0788882 5.2625C -0.000278484 5.325 -0.0211119 5.4375 0.0288881 5.52917L 0.862222 6.97083C 0.912221 7.0625 1.02472 7.09583 1.11639 7.0625L 2.15389 6.64583C 2.37055 6.8125 2.60389 6.95 2.85805 7.05417L 3.01639 8.15833C 3.02889 8.25833 3.11639 8.33333 3.22055 8.33333L 4.88722 8.33333C 4.99139 8.33333 5.07889 8.25833 5.09139 8.15833L 5.24972 7.05417C 5.50389 6.95 5.73722 6.80833 5.95389 6.64583L 6.99139 7.0625C 7.08722 7.1 7.19555 7.0625 7.24555 6.97083L 8.07889 5.52917C 8.12889 5.4375 8.10806 5.325 8.02889 5.2625L 7.14972 4.575ZM 4.05389 5.625C 3.24972 5.625 2.59555 4.97083 2.59555 4.16667C 2.59555 3.3625 3.24972 2.70833 4.05389 2.70833C 4.85806 2.70833 5.51222 3.3625 5.51222 4.16667C 5.51222 4.97083 4.85806 5.625 4.05389 5.625Z"/>
<path id="path1_fill" d="M 5.00481 3.2025C 5.01647 3.10917 5.02522 3.01583 5.02522 2.91667C 5.02522 2.8175 5.01647 2.72417 5.00481 2.63083L 5.62022 2.14958C 5.67564 2.10583 5.69022 2.02708 5.65522 1.96292L 5.07189 0.95375C 5.03689 0.889583 4.95814 0.86625 4.89397 0.889583L 4.16772 1.18125C 4.01606 1.06458 3.85272 0.968333 3.67481 0.895417L 3.56397 0.1225C 3.55522 0.0525 3.49397 0 3.42106 0L 2.25439 0C 2.18147 0 2.12022 0.0525 2.11147 0.1225L 2.00064 0.895417C 1.82272 0.968333 1.65939 1.0675 1.50772 1.18125L 0.781472 0.889583C 0.714388 0.863333 0.638555 0.889583 0.603555 0.95375L 0.0202217 1.96292C -0.017695 2.02708 -0.000194939 2.10583 0.0552217 2.14958L 0.670638 2.63083C 0.658972 2.72417 0.650222 2.82042 0.650222 2.91667C 0.650222 3.01292 0.658972 3.10917 0.670638 3.2025L 0.0552217 3.68375C -0.000194939 3.7275 -0.0147783 3.80625 0.0202217 3.87042L 0.603555 4.87958C 0.638555 4.94375 0.717305 4.96708 0.781472 4.94375L 1.50772 4.65208C 1.65939 4.76875 1.82272 4.865 2.00064 4.93792L 2.11147 5.71083C 2.12022 5.78083 2.18147 5.83333 2.25439 5.83333L 3.42106 5.83333C 3.49397 5.83333 3.55522 5.78083 3.56397 5.71083L 3.67481 4.93792C 3.85272 4.865 4.01606 4.76583 4.16772 4.65208L 4.89397 4.94375C 4.96105 4.97 5.03689 4.94375 5.07189 4.87958L 5.65522 3.87042C 5.69022 3.80625 5.67564 3.7275 5.62022 3.68375L 5.00481 3.2025ZM 2.83772 3.9375C 2.27481 3.9375 1.81689 3.47958 1.81689 2.91667C 1.81689 2.35375 2.27481 1.89583 2.83772 1.89583C 3.40064 1.89583 3.85856 2.35375 3.85856 2.91667C 3.85856 3.47958 3.40064 3.9375 2.83772 3.9375Z"/>
</defs>
</svg>
