<?xml version="1.0" standalone="no"?>
<!DOCTYPE svg PUBLIC "-//W3C//DTD SVG 20010904//EN"
 "http://www.w3.org/TR/2001/REC-SVG-20010904/DTD/svg10.dtd">
<svg version="1.0" xmlns="http://www.w3.org/2000/svg"
 width="510.000000pt" height="510.000000pt" viewBox="0 0 510.000000 510.000000"
 preserveAspectRatio="xMidYMid meet">
<metadata>
Created by potrace 1.13, written by Peter Selinger 2001-2015
</metadata>
<g transform="translate(0.000000,510.000000) scale(0.100000,-0.100000)"
fill="#000000" stroke="none">
<path d="M2355 5094 c-16 -2 -73 -9 -125 -15 -226 -25 -510 -105 -730 -204
-450 -202 -852 -555 -1120 -985 -179 -285 -312 -661 -361 -1020 -18 -125 -18
-515 0 -640 38 -277 118 -545 234 -784 127 -260 271 -468 467 -670 399 -412
891 -663 1477 -753 157 -24 546 -24 708 1 377 57 733 193 1035 394 171 114
272 196 402 325 373 371 619 845 716 1377 24 135 26 166 26 430 0 264 -2 295
-26 430 -81 443 -263 840 -544 1189 -86 106 -250 270 -357 357 -211 170 -498
334 -742 422 -131 48 -360 105 -505 127 -99 15 -489 29 -555 19z m415 -75
c985 -89 1828 -768 2134 -1718 69 -213 116 -484 116 -664 l0 -73 -84 81 c-110
105 -149 183 -206 410 l-20 80 6 -105 c11 -206 -28 -625 -82 -881 -101 -478
-341 -1058 -529 -1277 -77 -89 -304 -245 -478 -327 -305 -144 -563 -190 -1072
-190 -509 0 -767 46 -1072 190 -174 82 -401 238 -478 327 -183 213 -421 784
-524 1254 -56 257 -98 687 -86 889 l5 90 -15 -64 c-24 -107 -74 -200 -135
-251 -72 -61 -142 -130 -163 -160 -17 -24 -17 -22 -11 70 31 501 218 987 534
1392 155 199 434 445 650 575 307 184 654 305 980 342 52 6 109 13 125 15 69
8 298 5 405 -5z"/>
<path d="M2295 4660 c-394 -40 -756 -149 -1105 -331 -392 -206 -558 -408 -660
-804 -56 -214 -65 -304 -64 -610 0 -304 17 -480 70 -740 77 -380 278 -923 392
-1056 48 -55 117 -99 159 -99 27 0 34 5 40 28 17 60 6 184 -26 292 -186 618
-294 1221 -317 1765 -14 352 43 722 135 867 114 179 518 327 1076 393 186 23
738 31 946 16 581 -44 1035 -178 1214 -357 67 -67 116 -201 152 -409 25 -153
25 -662 0 -875 -55 -465 -157 -959 -277 -1350 -46 -147 -62 -289 -41 -344 11
-26 15 -28 52 -23 55 7 136 71 177 140 55 92 170 370 237 572 142 429 204 841
192 1273 -6 220 -21 339 -62 501 -110 436 -276 628 -740 856 -279 138 -571
230 -871 275 -159 24 -530 35 -679 20z"/>
<path d="M2355 4284 c-598 -31 -1020 -131 -1257 -296 -71 -50 -101 -94 -137
-206 -48 -145 -63 -253 -68 -514 -9 -379 27 -713 128 -1213 84 -415 250 -961
318 -1045 65 -81 228 -176 403 -235 414 -138 1222 -138 1635 0 179 60 363 172
413 252 39 61 166 450 229 699 84 332 147 681 188 1029 24 214 24 648 0 803
-22 137 -60 273 -93 329 -104 179 -522 324 -1084 378 -157 14 -547 26 -675 19z
m-481 -790 c13 -5 16 -25 16 -120 l0 -114 -140 0 -140 0 0 -305 0 -305 110 0
110 0 0 -120 0 -120 -111 0 -112 0 5 -450 5 -450 -124 0 -123 0 0 53 c0 28
-11 430 -25 892 -14 462 -25 886 -25 943 l0 102 269 0 c148 0 276 -3 285 -6z
m416 -672 c0 -373 -3 -821 -7 -995 l-6 -317 -124 0 -123 0 -1 143 c0 78 -8
522 -18 987 -9 465 -16 848 -14 853 3 4 69 7 149 7 l144 0 0 -678z m746 647
c61 -118 127 -346 163 -559 44 -263 53 -395 58 -907 l5 -493 -115 0 -115 0 -6
63 c-3 34 -8 213 -11 397 -3 184 -9 358 -13 385 l-7 50 -147 3 -148 3 0 -451
0 -450 -119 0 -118 0 -6 368 c-4 202 -10 649 -13 995 l-7 627 291 0 291 0 17
-31z m904 -89 l0 -120 -105 0 c-102 0 -105 -1 -105 -22 1 -67 -52 -1687 -56
-1705 -4 -22 -8 -23 -126 -23 l-121 0 6 875 6 875 -105 0 -104 0 0 120 0 120
355 0 355 0 0 -120z"/>
<path d="M2690 2955 l0 -315 146 0 147 0 -7 63 c-19 168 -79 430 -120 530
l-16 37 -75 0 -75 0 0 -315z"/>
<path d="M1475 701 c-16 -26 70 -108 157 -149 96 -46 293 -93 501 -119 184
-22 661 -22 846 1 331 40 543 112 631 213 63 72 21 73 -250 8 -290 -70 -451
-88 -790 -89 -374 -1 -509 16 -896 107 -136 33 -191 40 -199 28z"/>
</g>
</svg>
