<?xml version="1.0" standalone="no"?>
<!DOCTYPE svg PUBLIC "-//W3C//DTD SVG 20010904//EN"
 "http://www.w3.org/TR/2001/REC-SVG-20010904/DTD/svg10.dtd">
<svg version="1.0" xmlns="http://www.w3.org/2000/svg"
 width="400.000000pt" height="341.000000pt" viewBox="0 0 400.000000 341.000000"
 preserveAspectRatio="xMidYMid meet">
<metadata>
Created by potrace 1.13, written by Peter Selinger 2001-2015
</metadata>
<g transform="translate(0.000000,341.000000) scale(0.100000,-0.100000)"
fill="#000000" stroke="none">
<path d="M1767 3395 c-286 -39 -566 -149 -797 -313 -117 -83 -304 -267 -393
-386 -86 -116 -184 -290 -238 -422 l-43 -104 -148 0 -148 0 0 -465 0 -465 148
0 147 0 49 -115 c180 -426 485 -753 881 -945 693 -336 1513 -189 2045 366 169
177 314 405 401 631 l24 63 152 0 153 0 0 465 0 465 -153 0 -152 0 -24 63
c-36 95 -126 269 -185 360 -243 377 -626 653 -1054 762 -209 53 -459 68 -665
40z m482 -301 c390 -67 735 -291 957 -622 53 -77 144 -250 159 -299 l6 -23
-1375 0 -1376 0 20 50 c114 288 350 562 623 722 159 93 391 168 583 187 109
12 288 5 403 -15z m-1516 -1326 l112 -173 5 170 5 170 55 0 55 0 3 -227 2
-228 -104 0 -104 0 -109 173 -108 172 -3 -172 -2 -173 -60 0 -60 0 0 223 c0
123 3 227 7 230 3 4 48 7 100 7 l93 0 113 -172z m447 -58 l0 -230 -65 0 -65 0
0 230 0 230 65 0 65 0 0 -230z m568 178 l3 -48 -172 -2 c-150 -3 -173 -5 -183
-20 -17 -28 2 -36 114 -47 177 -18 192 -22 222 -52 26 -25 28 -33 28 -109 0
-75 -2 -83 -26 -105 -27 -25 -27 -25 -245 -25 l-219 0 0 50 0 50 185 0 185 0
0 30 c0 19 -5 30 -14 30 -22 0 -217 20 -259 26 -21 3 -51 17 -67 31 -28 23
-30 30 -30 94 0 61 3 72 28 100 15 17 43 34 62 39 19 4 114 7 210 7 l175 -2 3
-47z m562 2 l0 -50 -172 -2 -173 -3 0 -25 c0 -25 1 -25 150 -42 l150 -17 34
-36 c32 -36 33 -39 29 -112 -3 -67 -6 -78 -31 -99 -28 -24 -31 -24 -243 -24
l-214 0 0 50 0 50 179 0 c174 0 180 1 186 21 4 12 3 25 -2 30 -5 5 -73 16
-150 23 -199 20 -223 36 -223 145 0 49 4 65 26 90 14 17 40 35 57 40 18 5 114
10 215 10 l182 1 0 -50z m549 -182 l98 -228 -64 0 -64 0 -20 45 -20 46 -132
-3 -132 -3 -15 -42 -14 -43 -68 0 c-66 0 -67 1 -59 23 14 34 182 421 188 430
2 4 49 6 104 5 l100 -3 98 -227z m478 59 l112 -172 1 173 0 172 60 0 60 0 0
-230 0 -230 -103 0 -102 0 -110 176 -110 177 -3 -177 -2 -176 -55 0 -55 0 0
230 0 230 98 0 97 0 112 -173z m43 -482 c0 -7 -16 -51 -36 -97 -214 -486 -617
-807 -1124 -894 -128 -22 -406 -14 -530 15 -483 112 -863 441 -1054 911 -14
35 -26 67 -26 72 0 4 623 8 1385 8 1204 0 1385 -2 1385 -15z"/>
<path d="M2607 1753 l-35 -88 80 -3 c44 -2 83 0 86 2 10 11 -63 171 -79 174
-12 2 -26 -20 -52 -85z"/>
</g>
</svg>
