<?xml version="1.0" standalone="no"?>
<!DOCTYPE svg PUBLIC "-//W3C//DTD SVG 20010904//EN"
 "http://www.w3.org/TR/2001/REC-SVG-20010904/DTD/svg10.dtd">
<svg version="1.0" xmlns="http://www.w3.org/2000/svg"
 width="70.000000pt" height="70.000000pt" viewBox="0 0 70.000000 70.000000"
 preserveAspectRatio="xMidYMid meet">
<metadata>
Created by potrace 1.13, written by Peter Selinger 2001-2015
</metadata>
<g transform="translate(0.000000,70.000000) scale(0.100000,-0.100000)"
fill="#000000" stroke="none">
<path d="M318 683 c-44 -28 -63 -77 -50 -132 6 -25 10 -46 9 -46 -1 0 -24 -11
-51 -25 -118 -59 -168 -218 -107 -338 24 -47 88 -106 137 -127 44 -18 122 -19
176 -3 50 15 123 79 149 130 47 91 31 211 -38 284 -21 23 -46 45 -57 51 -17 9
-17 12 -2 41 26 50 21 106 -12 143 -36 40 -110 50 -154 22z m94 -340 c15 -15
28 -31 28 -36 0 -11 -230 -120 -238 -113 -3 3 -6 25 -6 48 l-1 43 85 42 c47
23 89 42 94 42 6 1 23 -11 38 -26z m108 -92 c11 -22 17 -46 14 -54 -3 -8 -69
-45 -146 -82 -105 -50 -146 -65 -157 -58 -23 13 -51 72 -44 91 7 18 258 141
290 142 16 0 28 -11 43 -39z"/>
</g>
</svg>
