<?xml version="1.0" standalone="no"?>
<!DOCTYPE svg PUBLIC "-//W3C//DTD SVG 20010904//EN"
 "http://www.w3.org/TR/2001/REC-SVG-20010904/DTD/svg10.dtd">
<svg version="1.0" xmlns="http://www.w3.org/2000/svg"
 width="1500.000000pt" height="1500.000000pt" viewBox="0 0 1500.000000 1500.000000"
 preserveAspectRatio="xMidYMid meet">
<metadata>
Created by potrace 1.13, written by Peter Selinger 2001-2015
</metadata>
<g transform="translate(0.000000,1500.000000) scale(0.100000,-0.100000)"
fill="#000000" stroke="none">
<path d="M7545 14974 c-346 -77 -703 -251 -991 -484 -110 -89 -316 -297 -406
-410 -294 -370 -460 -767 -519 -1245 -15 -126 -16 -496 0 -635 50 -444 189
-866 405 -1229 31 -51 56 -96 56 -100 0 -3 -42 -17 -92 -30 -150 -38 -461
-144 -632 -216 -292 -121 -611 -292 -880 -469 -523 -346 -1065 -857 -1450
-1371 -608 -809 -946 -1691 -1048 -2735 -18 -182 -18 -917 0 -1100 116 -1197
548 -2194 1338 -3090 119 -135 429 -444 561 -559 522 -455 1126 -814 1723
-1023 47 -16 115 -48 152 -70 144 -86 296 -128 463 -128 57 0 136 -7 175 -15
38 -8 148 -26 243 -40 170 -25 179 -25 855 -25 635 0 692 1 830 21 1127 157
2127 646 2968 1451 357 341 621 653 869 1028 480 725 757 1527 847 2450 18
183 18 918 0 1100 -102 1044 -440 1926 -1048 2735 -493 657 -1191 1262 -1873
1622 -58 31 -107 57 -109 58 -2 2 36 52 84 111 254 319 467 720 569 1073 89
309 119 528 119 871 0 353 -30 549 -131 845 -199 584 -686 1132 -1262 1420
-173 86 -358 151 -558 195 -87 19 -125 20 -620 19 -521 -1 -529 -1 -638 -25z
m361 -3965 c683 -46 1350 -214 1922 -484 67 -32 122 -61 122 -64 0 -13 -241
-264 -365 -382 -302 -283 -800 -668 -1167 -902 -31 -19 -59 -44 -62 -54 -3
-10 -44 -202 -91 -428 -47 -225 -89 -420 -93 -433 -5 -14 -32 125 -80 405 -41
236 -76 438 -79 451 -4 15 -55 56 -162 129 -791 538 -1355 1055 -1682 1539
l-49 73 37 10 c228 60 683 127 983 144 140 8 623 6 766 -4z m219 -3120 c109
-15 192 -43 261 -87 187 -122 535 -499 973 -1057 194 -248 208 -267 196 -272
-5 -2 -1180 -561 -2609 -1243 -1430 -682 -2600 -1239 -2601 -1237 -5 6 -99
417 -140 611 -103 493 -149 829 -143 1061 l3 150 52 105 c88 179 205 298 383
389 181 93 3185 1519 3246 1540 124 45 249 58 379 40z m2151 -744 c30 -18 50
-40 68 -77 29 -57 32 -88 15 -139 -26 -78 -51 -96 -267 -200 -113 -55 -206
-98 -207 -97 0 2 -55 73 -121 158 l-120 155 136 64 c368 175 362 173 409 167
24 -4 63 -17 87 -31z m134 -890 c227 -73 389 -195 499 -377 37 -62 474 -975
510 -1066 39 -99 54 -198 49 -326 -4 -105 -10 -135 -42 -231 -68 -202 -166
-339 -320 -444 -64 -44 -106 -64 -2466 -1189 -1108 -528 -2233 -1064 -2500
-1192 -550 -264 -615 -292 -722 -314 -323 -67 -691 84 -872 358 -63 94 -523
1056 -555 1159 -76 249 -27 527 134 753 53 74 164 178 236 221 61 37 5311
2543 5464 2609 142 61 213 74 370 70 108 -3 145 -8 215 -31z m-6431 -2217 c24
-101 46 -189 48 -195 3 -7 -1 -13 -8 -13 -7 0 -90 -37 -184 -82 -142 -69 -178
-82 -220 -83 -62 0 -119 27 -159 78 -57 71 -45 188 26 254 19 18 431 223 448
223 3 0 25 -82 49 -182z m7113 -761 c81 -178 84 -303 9 -462 -95 -204 -342
-318 -561 -260 -157 42 -256 127 -340 294 -28 57 -49 105 -47 107 8 8 872 422
882 423 6 1 32 -45 57 -102z m-4439 -2115 c55 -118 71 -185 64 -267 -17 -177
-122 -342 -265 -414 -156 -79 -287 -80 -449 -6 -105 48 -171 115 -231 234 -57
110 -68 141 -52 141 5 0 203 92 438 205 235 112 432 205 438 205 6 0 32 -44
57 -98z"/>
<path d="M9695 5284 c-205 -43 -359 -154 -441 -317 -60 -117 -80 -295 -48
-421 67 -265 283 -440 559 -454 74 -3 117 0 165 12 176 45 314 154 389 306 70
144 87 275 52 412 -60 235 -232 405 -458 453 -64 14 -173 18 -218 9z"/>
<path d="M8318 4320 c-54 -9 -1437 -664 -1508 -715 -135 -95 -183 -273 -119
-440 31 -82 112 -163 194 -194 74 -28 169 -37 230 -22 38 10 1147 531 1408
662 100 51 150 96 187 173 115 233 -11 488 -264 535 -65 12 -61 12 -128 1z"/>
<path d="M5485 3274 c-180 -38 -309 -120 -400 -254 -70 -103 -97 -188 -103
-320 -7 -181 46 -318 173 -446 121 -122 276 -180 455 -171 196 10 366 108 472
271 94 145 120 350 64 511 -72 207 -216 343 -422 395 -71 18 -185 25 -239 14z"/>
</g>
</svg>
