<?xml version="1.0" standalone="no"?>
<!DOCTYPE svg PUBLIC "-//W3C//DTD SVG 20010904//EN"
 "http://www.w3.org/TR/2001/REC-SVG-20010904/DTD/svg10.dtd">
<svg version="1.0" xmlns="http://www.w3.org/2000/svg"
 width="386.000000pt" height="400.000000pt" viewBox="0 0 386.000000 400.000000"
 preserveAspectRatio="xMidYMid meet">

<g transform="translate(0.000000,400.000000) scale(0.100000,-0.100000)"
fill="#000000" stroke="none">
<path d="M0 3991 c0 -16 42 -61 70 -76 19 -10 58 -15 109 -15 l81 0 2 -197 3
-196 45 0 45 0 3 196 2 197 91 0 91 0 39 39 c22 21 39 44 39 50 0 8 -88 11
-310 11 -171 0 -310 -4 -310 -9z"/>
<path d="M860 3994 c0 -17 36 -63 60 -78 23 -13 60 -16 220 -16 204 0 232 5
264 52 34 48 35 48 -264 48 -154 0 -280 -3 -280 -6z"/>
<path d="M1700 3855 l0 -145 220 0 220 0 0 -50 0 -50 -166 0 c-150 0 -170 -2
-204 -21 -20 -11 -45 -34 -54 -50 l-17 -29 260 0 c144 0 264 -1 269 -2 4 -2 8
63 10 144 l3 148 -218 2 -218 3 -3 48 -3 47 171 0 c183 0 212 6 244 52 34 48
34 48 -249 48 l-265 0 0 -145z"/>
<path d="M2510 3755 l0 -245 226 0 227 0 33 36 c60 63 59 64 -176 64 l-210 0
0 195 0 195 -50 0 -50 0 0 -245z"/>
<path d="M3290 3994 c0 -16 45 -66 70 -79 42 -22 388 -22 430 0 28 15 70 60
70 76 0 5 -128 9 -285 9 -157 0 -285 -3 -285 -6z"/>
<path d="M860 3798 c1 -19 26 -49 57 -70 25 -16 51 -18 221 -18 206 0 234 5
266 52 34 48 35 48 -264 48 -218 0 -280 -3 -280 -12z"/>
<path d="M3310 3660 l0 -150 50 0 50 0 0 100 0 100 170 0 170 0 0 -100 0 -100
50 0 51 0 -3 148 -3 147 -267 3 -268 2 0 -150z"/>
<path d="M860 3598 c1 -19 26 -49 57 -70 25 -16 51 -18 230 -18 l202 0 35 34
c70 66 70 66 -244 66 -218 0 -280 -3 -280 -12z"/>
<path d="M1376 3229 c-424 -29 -775 -78 -1021 -145 -100 -27 -175 -53 -175
-61 0 -4 23 -35 96 -132 2 -2 89 17 193 43 216 53 522 107 756 132 239 26
1056 32 1330 10 332 -27 605 -71 915 -148 l164 -40 23 28 c13 16 37 48 53 71
l31 42 -80 25 c-278 88 -650 145 -1141 176 -189 11 -967 11 -1144 -1z"/>
<path d="M1400 2920 c-336 -12 -636 -48 -862 -105 -137 -35 -170 -49 -161 -71
12 -33 170 -146 278 -199 154 -75 146 -74 170 -13 37 96 156 155 358 177 91
10 227 15 227 8 0 -3 64 -322 324 -1612 197 -980 217 -1079 221 -1083 6 -6 13
28 120 558 58 289 149 736 201 995 52 259 125 621 163 805 l67 335 115 -1
c176 -2 345 -45 420 -106 23 -19 59 -80 59 -100 0 -9 5 -20 10 -23 15 -9 231
97 304 149 71 51 142 121 129 129 -4 3 -44 16 -89 30 -114 36 -310 73 -519 97
-181 21 -711 44 -764 34 -21 -4 -52 -34 -111 -105 -46 -55 -88 -104 -95 -109
-9 -7 -37 21 -103 99 -97 117 -107 123 -201 119 -25 -1 -143 -5 -261 -8z"/>
</g>
</svg>
